<?xml version="1.0" encoding="utf-8"?>
<!-- Generator: Adobe Illustrator 24.0.0, SVG Export Plug-In . SVG Version: 6.00 Build 0)  -->
<svg version="1.0" id="Capa_1" xmlns="http://www.w3.org/2000/svg" xmlns:xlink="http://www.w3.org/1999/xlink" x="0px" y="0px"
	 viewBox="0 0 500 130" style="enable-background:new 0 0 500 130;" xml:space="preserve">
<style type="text/css">
	.st0{fill:#1313C3;}
</style>
<g>
	<polygon class="st0" points="89.9,41.9 56.6,41.9 32.6,67.8 32.6,10.2 5.5,10.2 5.5,119.7 32.7,119.7 32.7,97 34.8,95.1 
		57.6,119.7 90.7,119.7 53.5,78.9 	"/>
	<rect x="407.2" y="78.6" class="st0" width="27.1" height="41.2"/>
	<rect x="407.2" y="37.6" class="st0" width="27.1" height="28.2"/>
	<path class="st0" d="M149.4,42.7c-6.3-3.5-13.4-5.2-21.3-5.2c-7.9,0-15.1,1.7-21.5,5.2c-6.4,3.5-11.4,8.4-15,14.6
		c-3.6,6.2-5.4,13.3-5.4,21.2c0,8,1.8,15.1,5.4,21.4c3.6,6.3,8.6,11.2,15,14.7c6.4,3.5,13.6,5.2,21.5,5.2c7.8,0,14.9-1.7,21.3-5.2
		c6.3-3.5,11.3-8.4,14.9-14.7c3.6-6.3,5.4-13.4,5.4-21.4c0-7.9-1.8-14.9-5.4-21.2C160.8,51.1,155.8,46.2,149.4,42.7z M128,96.3
		c-9.9,0-18-7.9-18-17.6c0-9.7,8.1-17.6,18-17.6c9.9,0,18,7.9,18,17.6C146,88.4,137.9,96.3,128,96.3z"/>
	<path class="st0" d="M479.2,92.6c-3.3,0-6-2.7-5.9-6V64.7h20.2V37.6h-20.2V10.2h-27.1v76.3c0,18.4,15,33.4,33.4,33.2l14.8,0V92.6
		H479.2z"/>
</g>
<path class="st0" d="M371.4,37.6h-22l-14.1,42.7L323,37.6h-22.2l-9.3,27.8l-0.6,1.7l-0.7-2.9l-1.2-5.4l-0.2-0.8c0-0.1,0-0.2-0.1-0.2
	c-0.1-0.3-0.2-0.7-0.3-1c0,0,0-0.1,0-0.1c-0.1-0.3-0.2-0.6-0.3-1c-0.1-0.3-0.2-0.7-0.3-1c0-0.1,0-0.1-0.1-0.2
	c-2.9-9.3-11.5-16-21.7-16c-10,0-18.6,6.5-21.6,15.5c0,0,0,0.1,0,0.1c-0.3,0.9-0.5,1.8-0.7,2.8c-1.4,6.2-2.5,11.8-2.8,13.7l-4,24.3
	c0,0.2,0,0.4-0.1,0.6c-0.4,1.3-1.5,2.2-2.9,2.2c-0.5,0-1.1-0.2-1.6-0.5c-0.7-0.4-1.4-2-1.7-3.8l-5.4-25.7c-0.2-1.4-0.5-2.7-0.9-4
	c-1.7-6.1-6.1-11.2-11.8-13.7c-3.1-1.5-6.5-2.4-10.2-2.4c-12,0-20.7,8.7-22.9,20.9c-0.4,1.2-0.7,2.5-0.9,3.7l-2.9,15
	c-0.6,3,0,6,1.7,8.5c1.6,2.5,4.1,4.2,7,4.8c2.9,0.6,5.8,0,8.3-1.7c2.4-1.7,4.1-4.3,4.7-7.2l2.9-15.3c0.3-1.8,0.5-3,1.7-3.8
	c0.5-0.3,1-0.5,1.6-0.5c1.3,0,2.6,0.9,2.9,2.2c0,0.2,0,0.3,0.1,0.6l4,24.3c1.8,11.9,11.3,20.3,23.1,20.4h0.2c0.4,0,0.8,0,1.2,0
	c0.3,0,0.7,0,1-0.1c0.2,0,0.4,0,0.6-0.1c0.2,0,0.4,0,0.6-0.1c0.1,0,0.2,0,0.3,0c0.3,0,0.7-0.1,1-0.2c0,0,0,0,0.1,0
	c0.2,0,0.5-0.1,0.7-0.2c0.2,0,0.4-0.1,0.6-0.2c0.3-0.1,0.6-0.2,1-0.3c0.3-0.1,0.6-0.2,1-0.3c0.4-0.2,0.9-0.3,1.3-0.5
	c0.4-0.2,0.7-0.3,1.1-0.5c0.3-0.2,0.6-0.3,0.9-0.5c0.2-0.1,0.4-0.2,0.6-0.4c0.2-0.1,0.4-0.2,0.6-0.3c0.1-0.1,0.2-0.2,0.4-0.2
	c0.2-0.1,0.5-0.3,0.7-0.5c0.1-0.1,0.2-0.2,0.3-0.2c0.3-0.2,0.6-0.4,0.9-0.7c0,0,0,0,0,0c0.3-0.2,0.6-0.5,0.9-0.7
	c0.4-0.3,0.7-0.7,1-1c0,0,0,0,0,0c2.5-2.6,4.1-5.8,4.9-9.3c1.6-6.8,2.9-13.3,3.2-15.3l4-24.3c0-0.2,0-0.4,0.1-0.6
	c0.4-1.3,1.5-2.2,2.9-2.2c0.5,0,1.1,0.2,1.6,0.5c0.4,0.2,0.9,0.6,1.1,1.4c0.3,0.7,0.4,1.6,0.6,2.4l9.5,45.3c1,4.9,5.1,8.8,10.1,9.1
	c0.3,0,0.6,0,0.9,0c0.1,0,0.5,0,0.7,0c0,0,0.4,0,0.5,0c0.8-0.1,1.5-0.2,2.3-0.4c0,0,0,0,0.1,0c3.6-1.1,6.5-3.8,7.9-7.4
	c0.7-1.4,1.2-2.7,1.6-3.7c1-2.6,7-18.6,10.5-27.9l11.7,39.5h20.8l14.2-37.1l11.3,37.1h24.4L371.4,37.6z"/>
<g>
</g>
<g>
</g>
<g>
</g>
<g>
</g>
<g>
</g>
<g>
</g>
<g>
</g>
<g>
</g>
<g>
</g>
<g>
</g>
<g>
</g>
<g>
</g>
<g>
</g>
<g>
</g>
<g>
</g>
</svg>
